<?xml version="1.0" encoding="UTF-8"?>
<svg width="54px" height="56px" viewBox="0 0 54 56" version="1.1" xmlns="http://www.w3.org/2000/svg" xmlns:xlink="http://www.w3.org/1999/xlink">
    <title>dog-icon</title>
    <g id="Page-1" stroke="none" stroke-width="1" fill="none" fill-rule="evenodd">
        <g id="Desktop" transform="translate(-25.000000, -25.000000)">
            <g id="dog-icon" transform="translate(25.000000, 25.000000)">
                <circle id="Oval" fill="#FFFFFF" cx="29" cy="31" r="25"></circle>
                <g fill-rule="nonzero">
                    <path d="M21.4285714,27 L13.5714286,27 C12.7032143,27 12,26.2541667 12,25.3333333 L12,23.6666667 C12,22.7458333 12.7032143,22 13.5714286,22 L21.4285714,22 C22.2967857,22 23,22.7458333 23,23.6666667 L23,25.3333333 C23,26.2541667 22.2967857,27 21.4285714,27 Z" id="Path" fill="#FFCB57"></path>
                    <ellipse id="Oval" fill="#FFCB57" cx="7.5" cy="13.5" rx="6.5" ry="5.5"></ellipse>
                    <path d="M50,9 L48.3636364,9 C48.3636364,4.94018182 45.0598182,1.63636364 41,1.63636364 C36.9401818,1.63636364 33.6363636,4.94018182 33.6363636,9 L32,9 C32,4.03772727 36.0377273,0 41,0 C45.9622727,0 50,4.03772727 50,9 Z" id="Path" fill="#E56565"></path>
                    <path d="M47,8 L45.4285714,8 C45.4285714,6.03071429 43.6662143,4.42857143 41.5,4.42857143 C39.3337857,4.42857143 37.5714286,6.03071429 37.5714286,8 L36,8 C36,5.24285714 38.4671429,3 41.5,3 C44.5328571,3 47,5.24285714 47,8 Z" id="Path" fill="#E56565"></path>
                    <g id="Group" fill="#3F3A34">
                        <path d="M19.3548387,33.1111111 C18.0209677,33.1111111 16.9354839,34.1936085 16.9354839,35.5238095 C16.9354839,36.8540106 18.0209677,37.9365079 19.3548387,37.9365079 C20.6887097,37.9365079 21.7741935,36.8540106 21.7741935,35.5238095 C21.7741935,34.1936085 20.6887097,33.1111111 19.3548387,33.1111111 Z M19.3548387,36.3280423 C18.9104839,36.3280423 18.5483871,35.9669418 18.5483871,35.5238095 C18.5483871,35.0806772 18.9104839,34.7195767 19.3548387,34.7195767 C19.7991935,34.7195767 20.1612903,35.0806772 20.1612903,35.5238095 C20.1612903,35.9669418 19.7991935,36.3280423 19.3548387,36.3280423 Z" id="Shape"></path>
                        <path d="M38.7096774,33.1111111 C37.3758065,33.1111111 36.2903226,34.1936085 36.2903226,35.5238095 C36.2903226,36.8540106 37.3758065,37.9365079 38.7096774,37.9365079 C40.0435484,37.9365079 41.1290323,36.8540106 41.1290323,35.5238095 C41.1290323,34.1936085 40.0435484,33.1111111 38.7096774,33.1111111 Z M38.7096774,36.3280423 C38.2653226,36.3280423 37.9032258,35.9669418 37.9032258,35.5238095 C37.9032258,35.0806772 38.2653226,34.7195767 38.7096774,34.7195767 C39.1540323,34.7195767 39.516129,35.0806772 39.516129,35.5238095 C39.516129,35.9669418 39.1540323,36.3280423 38.7096774,36.3280423 Z" id="Shape"></path>
                        <path d="M11.2903226,23.4603175 L11.2903226,25.0687831 C11.2903226,26.3989841 12.3758065,27.4814815 13.7096774,27.4814815 L21.7741935,27.4814815 C23.1080645,27.4814815 24.1935484,26.3989841 24.1935484,25.0687831 L24.1935484,23.4603175 C24.1935484,22.1301164 23.1080645,21.047619 21.7741935,21.047619 L13.7096774,21.047619 C12.3758065,21.047619 11.2903226,22.1301164 11.2903226,23.4603175 Z M22.5806452,23.4603175 L22.5806452,25.0687831 C22.5806452,25.5119153 22.2185484,25.8730159 21.7741935,25.8730159 L13.7096774,25.8730159 C13.2653226,25.8730159 12.9032258,25.5119153 12.9032258,25.0687831 L12.9032258,23.4603175 C12.9032258,23.0171852 13.2653226,22.6560847 13.7096774,22.6560847 L21.7741935,22.6560847 C22.2185484,22.6560847 22.5806452,23.0171852 22.5806452,23.4603175 Z" id="Shape"></path>
                        <path d="M50,29.8941799 C50,22.3689735 47.7879032,15.0818201 43.6016129,8.82006349 L43.5193548,8.69701587 C43.375,7.50353439 42.3645161,6.57142857 41.1290323,6.57142857 C39.7951613,6.57142857 38.7096774,7.65392593 38.7096774,8.98412698 C38.7096774,10.1076402 39.4870968,11.0453757 40.5306452,11.3131852 L41.9604839,15.3062011 C43.275,18.9767196 44.0443548,22.7871746 44.2741935,26.661164 C42.5016129,24.7012487 39.9451613,23.4603175 37.0967742,23.4603175 L25.8064516,23.4603175 L25.8064516,25.0687831 L37.0967742,25.0687831 C41.5435484,25.0687831 45.1612903,28.6765714 45.1612903,33.1111111 C45.1612903,34.8715767 44.5846774,36.5508148 43.5483871,37.9284656 L43.5483871,35.5238095 C43.5483871,32.8626032 41.3782258,30.6984127 38.7096774,30.6984127 C36.041129,30.6984127 33.8709677,32.8626032 33.8709677,35.5238095 L33.8709677,41.1534392 L24.1935484,41.1534392 L24.1935484,35.5238095 C24.1935484,32.8626032 22.0233871,30.6984127 19.3548387,30.6984127 C16.6862903,30.6984127 14.516129,32.8626032 14.516129,35.5238095 L14.516129,37.9284656 C13.4798387,36.5508148 12.9032258,34.872381 12.9032258,33.1111111 C12.9032258,31.8235344 13.1991935,30.5938624 13.7822581,29.455873 L12.3459677,28.7240212 C11.8314516,29.7268995 11.5072581,30.7900952 11.3693548,31.8951111 L5.64516129,37.6035556 L5.27096774,37.2303915 C4.68709677,36.648127 3.91209677,36.3280423 3.08790323,36.3280423 C1.38467742,36.3280423 0,37.7089101 0,39.4074497 C0,40.2293757 0.320967742,41.0030476 0.90483871,41.5845079 L4.22016129,44.890709 C4.9233871,45.5928042 5.85967742,45.978836 6.85483871,45.978836 C7.85,45.978836 8.78629032,45.5928042 9.49032258,44.8899048 L13.4733871,40.9177989 L12.3330645,39.7806138 L8.35,43.7527196 C7.5516129,44.5489101 6.15887097,44.5489101 5.36048387,43.7527196 L2.04516129,40.4465185 C1.76612903,40.1690582 1.61290323,39.7999153 1.61290323,39.4074497 C1.61290323,38.5959788 2.27419355,37.9365079 3.08790323,37.9365079 C3.48145161,37.9365079 3.8516129,38.0893122 4.13064516,38.3675767 L5.64516129,39.8779259 L11.35,34.1887831 C11.6120968,36.5363386 12.7370968,38.6948995 14.516129,40.285672 L14.516129,43.5661376 C12.7370968,43.5661376 11.2903226,45.0089312 11.2903226,46.7830688 C11.2903226,48.5572063 12.7370968,50 14.516129,50 L21.7741935,50 C23.1080645,50 24.1935484,48.9175026 24.1935484,47.5873016 L24.1935484,42.7619048 L33.8709677,42.7619048 L33.8709677,43.5661376 C32.0919355,43.5661376 30.6451613,45.0089312 30.6451613,46.7830688 C30.6451613,48.5572063 32.0919355,50 33.8709677,50 L41.1290323,50 C42.4629032,50 43.5483871,48.9175026 43.5483871,47.5873016 L43.5483871,40.2864762 C45.4153226,38.6168889 46.5475806,36.32 46.733871,33.8381376 C48.591129,33.4794497 50,31.8500741 50,29.8941799 Z M22.5806452,47.5873016 C22.5806452,48.0304339 22.2185484,48.3915344 21.7741935,48.3915344 L14.516129,48.3915344 C13.6266129,48.3915344 12.9032258,47.6701376 12.9032258,46.7830688 C12.9032258,45.896 13.6266129,45.1746032 14.516129,45.1746032 L16.1290323,45.1746032 L16.1290323,35.5238095 C16.1290323,33.749672 17.5758065,32.3068783 19.3548387,32.3068783 C21.133871,32.3068783 22.5806452,33.749672 22.5806452,35.5238095 L22.5806452,47.5873016 Z M41.9354839,47.5873016 C41.9354839,48.0304339 41.5733871,48.3915344 41.1290323,48.3915344 L33.8709677,48.3915344 C32.9814516,48.3915344 32.2580645,47.6701376 32.2580645,46.7830688 C32.2580645,45.896 32.9814516,45.1746032 33.8709677,45.1746032 L35.483871,45.1746032 L35.483871,35.5238095 C35.483871,33.749672 36.9306452,32.3068783 38.7096774,32.3068783 C40.4887097,32.3068783 41.9354839,33.749672 41.9354839,35.5238095 L41.9354839,47.5873016 Z M41.1290323,8.17989418 C41.5733871,8.17989418 41.9354839,8.54099471 41.9354839,8.98412698 C41.9354839,9.42725926 41.5733871,9.78835979 41.1290323,9.78835979 C40.6846774,9.78835979 40.3225806,9.42725926 40.3225806,8.98412698 C40.3225806,8.54099471 40.6846774,8.17989418 41.1290323,8.17989418 Z M46.7266129,32.1733757 C46.6201613,31.0812275 46.3241935,30.0453757 45.8830645,29.0899471 L45.9677419,29.0899471 C45.9677419,24.194582 45.1306452,19.3748148 43.4798387,14.7649524 L42.183871,11.1451005 C42.4395161,11.0204444 42.6709677,10.8579894 42.8669355,10.656127 C46.4798387,16.4361481 48.3870968,23.0622222 48.3870968,29.8941799 C48.3870968,30.9589841 47.6879032,31.8540952 46.7266129,32.1733757 Z" id="Shape"></path>
                        <path d="M6.0016129,20.1404444 C6.87177419,21.4119365 8.0016129,22.5177566 9.30564516,23.3388783 L10.166129,21.9789206 C9.39274194,21.4923598 8.69758065,20.8827513 8.08870968,20.1991534 C11.7008065,19.8308148 14.516129,17.1076825 14.516129,13.8095238 C14.516129,10.5097566 11.6983871,7.78582011 8.08467742,7.42069841 C9.90806452,5.36186243 12.5145161,4.15873016 15.3225806,4.15873016 C15.8685484,4.15873016 16.408871,4.21985185 16.9427419,4.30992593 C16.9403226,4.84634921 17.0040323,5.41333333 17.1532258,6.01087831 C17.6064516,7.81718519 18.725,9.67898413 20.3048387,11.2544762 C21.716129,12.6618836 23.3564516,13.6985397 24.9822581,14.2269206 C24.8903226,16.3291852 24.1185484,18.3574603 22.7677419,19.9771852 L24.0080645,21.0057989 C25.525,19.1866243 26.4193548,16.9267302 26.5798387,14.5727407 C26.8056452,14.5968677 27.0298387,14.6169735 27.2451613,14.6169735 C28.4774194,14.6169735 29.5298387,14.2245079 30.2951613,13.461291 C31.3895161,12.3699471 31.7233871,10.6939259 31.233871,8.74124868 C30.7806452,6.9349418 29.6620968,5.07314286 28.0822581,3.49765079 C26.5024194,1.92215873 24.6354839,0.806687831 22.8241935,0.354708995 C20.866129,-0.133460317 19.1854839,0.198687831 18.091129,1.29083598 C17.6870968,1.69375661 17.3887097,2.17710053 17.1951613,2.72397884 C17.008871,2.69261376 16.825,2.64838095 16.6370968,2.62666667 C16.4419355,2.11437037 16.1548387,1.66721693 15.7782258,1.29164021 C13.5983871,-0.884613757 9.20967742,0.0852910053 5.78870968,3.49765079 C4.15645161,5.12541799 3.02822581,7.04512169 2.60564516,8.87796825 C1.01451613,10.0593862 0,11.8311111 0,13.8095238 C0,16.9765926 2.59758065,19.610455 6.0016129,20.1404444 Z M19.2322581,2.42802116 C19.7,1.96156614 20.3685484,1.74120635 21.1491935,1.74120635 C22.8556452,1.74120635 25.0967742,2.79475132 26.9419355,4.63483598 C29.6306452,7.31614815 30.6443548,10.8370794 29.1548387,12.3233016 C27.6629032,13.8079153 24.133871,12.7977989 21.4451613,10.1164868 C18.7556452,7.4351746 17.7427419,3.91424339 19.2322581,2.42802116 Z M5.64516129,11.3968254 C5.20080645,11.3968254 4.83870968,11.0357249 4.83870968,10.5925926 C4.83870968,10.1494603 5.20080645,9.78835979 5.64516129,9.78835979 C6.08951613,9.78835979 6.4516129,10.1494603 6.4516129,10.5925926 C6.4516129,11.0357249 6.08951613,11.3968254 5.64516129,11.3968254 Z M6.92903226,4.63483598 C8.30483871,3.26281481 9.90564516,2.29693122 11.4379032,1.91492063 C12.8225806,1.56910053 13.9604839,1.75166138 14.6387097,2.42802116 C14.6846774,2.47386243 14.7137097,2.53578836 14.7556452,2.58565079 C11.2209677,2.76097354 8.00645161,4.55039153 6.00403226,7.47860317 C5.54677419,7.54937566 5.10483871,7.65875132 4.68145161,7.80270899 C5.18467742,6.70653968 5.95725806,5.60393651 6.92903226,4.63483598 Z M3.24274194,10.4228995 C3.23870968,10.48 3.22580645,10.5346878 3.22580645,10.5925926 C3.22580645,11.6397037 3.90241935,12.5243598 4.83870968,12.8573122 L4.83870968,14.2808042 L3.46209677,15.6536296 L4.60241935,16.7908148 L5.64516129,15.7509418 L6.68790323,16.7908148 L7.82822581,15.6536296 L6.4516129,14.2808042 L6.4516129,12.8573122 C7.38790323,12.5243598 8.06451613,11.6397037 8.06451613,10.5925926 C8.06451613,9.97655026 7.825,9.41921693 7.44193548,8.99216931 C10.4693548,9.07580952 12.9032258,11.2013968 12.9032258,13.8095238 C12.9032258,16.4707302 10.3709677,18.6349206 7.25806452,18.6349206 C4.14516129,18.6349206 1.61290323,16.4707302 1.61290323,13.8095238 C1.61290323,12.490582 2.23629032,11.2946878 3.24274194,10.4228995 Z" id="Shape"></path>
                        <path d="M14.516129,5.76719577 C13.4048387,5.76719577 12.5,6.66954497 12.5,7.77777778 C12.5,8.88601058 13.4048387,9.78835979 14.516129,9.78835979 C15.6274194,9.78835979 16.5322581,8.88601058 16.5322581,7.77777778 C16.5322581,6.66954497 15.6274194,5.76719577 14.516129,5.76719577 Z M14.516129,8.17989418 C14.2935484,8.17989418 14.1129032,7.99974603 14.1129032,7.77777778 C14.1129032,7.55580952 14.2935484,7.37566138 14.516129,7.37566138 C14.7387097,7.37566138 14.9193548,7.55580952 14.9193548,7.77777778 C14.9193548,7.99974603 14.7387097,8.17989418 14.516129,8.17989418 Z" id="Shape"></path>
                    </g>
                </g>
            </g>
        </g>
    </g>
</svg>